<?xml version="1.0" encoding="UTF-8"?>
<svg version="1.1" xmlns="http://www.w3.org/2000/svg" width="500" height="500">
<path d="M0 0 C165 0 330 0 500 0 C500 165 500 330 500 500 C335 500 170 500 0 500 C0 335 0 170 0 0 Z " fill="#264DE3" transform="translate(0,0)"/>
<path d="M0 0 C165 0 330 0 500 0 C500 165 500 330 500 500 C335 500 170 500 0 500 C0 335 0 170 0 0 Z M92.5 104.5 C91.674938 104.50597372 90.849876 104.51194743 89.99981213 104.51810217 C70.3330515 104.66082542 50.66643841 104.81776734 31 105 C31.51864227 115.76581022 32.11920857 126.49661893 33.1640625 137.2265625 C33.27668427 138.4209494 33.38930603 139.6153363 33.50534058 140.84591675 C33.81147787 144.09209353 34.12067922 147.33796271 34.43069458 150.58377075 C35.04892256 157.07841735 35.65310857 163.57439537 36.2578125 170.0703125 C36.32837608 170.82743279 36.39893967 171.58455307 36.47164154 172.36461639 C38.16347035 190.54226994 39.72357811 208.73097858 41.27934647 226.92069244 C43.83784111 256.82796127 46.50670244 286.72247444 49.29270935 316.60935974 C49.41009964 317.86877884 49.52748993 319.12819794 49.6484375 320.42578125 C49.76353165 321.66002335 49.87862579 322.89426544 49.99720764 324.16590881 C51.30762932 338.25152259 52.55761562 352.34243415 53.7956543 366.43457031 C54.48688812 374.29463616 55.18696006 382.15134709 56 390 C62.65963629 392.27862207 69.36757656 394.34426987 76.125 396.3125 C77.16688477 396.61663818 78.20876953 396.92077637 79.28222656 397.23413086 C87.36298561 399.57204857 95.48414497 401.71549339 103.63330078 403.80004883 C110.62462138 405.60265769 117.52649027 407.62523164 124.42700195 409.74584961 C131.85980337 412.00832834 139.36118988 413.96238418 146.890625 415.87524414 C153.12928641 417.47064738 159.21587926 419.26130507 165.28125 421.43359375 C171.81565884 422.79492893 178.58921632 420.137761 184.875 418.375 C185.82898682 418.11138672 186.78297363 417.84777344 187.76586914 417.57617188 C193.9524026 415.86290083 200.13057087 414.11984076 206.30957031 412.37963867 C215.73566074 409.72882664 225.16711645 407.097807 234.625 404.5625 C235.56657959 404.30339844 236.50815918 404.04429687 237.47827148 403.77734375 C238.80773804 403.42542969 238.80773804 403.42542969 240.1640625 403.06640625 C240.93186035 402.85959229 241.6996582 402.65277832 242.49072266 402.43969727 C248.90448566 401.31582227 254.38590642 402.36488035 260.5390625 404.046875 C261.74313248 404.36558563 261.74313248 404.36558563 262.9715271 404.69073486 C264.66519996 405.1407024 266.35778578 405.59477947 268.04931641 406.05273438 C270.59445209 406.74173035 273.14248604 407.41890525 275.69140625 408.09375 C277.34905748 408.53608694 279.00661039 408.97879253 280.6640625 409.421875 C281.48665054 409.63986252 282.30923859 409.85785004 283.15675354 410.08244324 C287.57063126 411.27109528 291.78714518 412.66933568 296.06640625 414.28515625 C305.60019804 417.25710054 315.84558802 416.70590248 325.73364258 416.6862793 C329.26741978 416.68748462 332.79694107 416.7471689 336.33007812 416.81054688 C351.39205672 416.92654092 364.21038195 414.68928731 378.44613647 409.84780884 C381.95366796 408.68340982 385.48474231 407.73948242 389.0625 406.8125 C390.2165332 406.50981201 391.37056641 406.20712402 392.55957031 405.89526367 C393.69491211 405.59982666 394.83025391 405.30438965 396 405 C412.43633066 400.66989608 428.72222406 395.88578478 445 391 C447.91564847 359.96317785 450.73016681 328.91863821 453.46554947 297.86549759 C455.39329656 275.98162479 457.34721516 254.10037053 459.34375 232.22265625 C459.44357933 231.12815218 459.54340866 230.03364811 459.64626312 228.90597725 C460.5377118 219.1330478 461.42956171 209.36015575 462.32727051 199.58779907 C463.56984556 186.06014816 464.79841117 172.53135692 466 159 C466.07888458 158.11496292 466.15776917 157.22992584 466.23904419 156.31806946 C466.69213688 151.22536513 467.1360236 146.13200701 467.56635284 141.03732681 C467.69551436 139.51931187 467.82709302 138.00149988 467.96154022 136.48394394 C468.02367958 135.77984516 468.08581894 135.07574638 468.14984131 134.35031128 C468.20396053 133.74568998 468.25807976 133.14106869 468.31383896 132.51812553 C468.83273129 125.8208889 469.06778603 119.20254154 469.03167725 112.48727417 C469.02939054 111.66577094 469.02710384 110.84426771 469.02474785 109.99787045 C469.01884949 107.99857198 469.00976247 105.99928333 469 104 C426.43526447 103.96975812 383.87052843 103.94937226 341.30578375 103.93814325 C338.88242054 103.93750196 336.45905733 103.93684313 334.03569412 103.93618393 C253.5226609 103.91463006 173.01141031 103.91470586 92.5 104.5 Z " fill="#000000" transform="translate(0,0)"/>
<path d="M0 0 C52.47 0 104.94 0 159 0 C164.8125 66.5625 164.8125 66.5625 166.62817383 87.38110352 C167.17878819 93.67817059 167.17878819 93.67817059 167.7297821 99.97520447 C167.97034703 102.72461516 168.21013474 105.47409229 168.4493866 108.22361755 C169.87853252 124.64287954 171.37205103 141.05341567 172.97548485 157.45662117 C173.86073336 166.51780448 174.6977161 175.58040629 175.46484375 184.65234375 C175.58416541 186.04810254 175.70363181 187.44384896 175.82322693 188.83958435 C176.13343292 192.46512081 176.44148909 196.09083639 176.74895477 199.71660614 C177.00579898 202.74200083 177.26400182 205.76727904 177.52217484 208.79256058 C179.71789135 234.5253176 181.87576122 260.26124324 184 286 C185.55847656 286.38526855 185.55847656 286.38526855 187.1484375 286.77832031 C194.79337949 288.67463863 202.42011054 290.6055117 210 292.75 C210.78632813 292.97042969 211.57265625 293.19085938 212.3828125 293.41796875 C214.25577095 293.94331075 216.12797894 294.47132739 218 295 C214.47651155 297.00838841 210.9354473 297.8306537 207 298.75 C200.59440952 300.28591296 194.29687415 302.06789461 188 304 C180.75843771 306.21697298 173.52016578 308.1601635 166.15234375 309.91796875 C163.01861772 310.69890952 159.95385133 311.62631111 156.87890625 312.61328125 C155.99654297 312.89365234 155.11417969 313.17402344 154.20507812 313.46289062 C152.49441612 314.01288173 150.78823782 314.57710578 149.08789062 315.15820312 C141.03991171 317.73591764 134.56398381 316.6874058 126.5625 314.25 C125.35335937 313.89035156 124.14421875 313.53070313 122.8984375 313.16015625 C121.94469238 312.87422607 121.94469238 312.87422607 120.97167969 312.58251953 C117.55592891 311.57335889 114.121119 310.63369724 110.6875 309.6875 C103.28773904 307.63895582 95.89315566 305.57224787 88.5 303.5 C76.80087031 300.22167245 65.09594394 296.96472007 53.38671875 293.72265625 C49.6352945 292.68352196 45.88481972 291.64103512 42.13525391 290.59521484 C40.71329603 290.19883555 39.2910955 289.80332569 37.86865234 289.40869141 C35.89063976 288.85916591 33.91391063 288.30525525 31.9375 287.75 C30.81214844 287.43546875 29.68679687 287.1209375 28.52734375 286.796875 C26 286 26 286 25 285 C24.68152049 282.66642079 24.42426204 280.35134208 24.203125 278.0078125 C24.12960815 277.26259338 24.05609131 276.51737427 23.98034668 275.74957275 C23.7317437 273.20852005 23.49059293 270.66682298 23.25 268.125 C23.11978455 266.77187714 23.11978455 266.77187714 22.98693848 265.39141846 C21.33213081 248.18730478 19.88080104 230.96722847 18.44787598 213.74346924 C16.43964081 189.64899407 14.23363078 165.57449489 12 141.5 C9.41387194 113.62435116 6.9109075 85.74574787 4.59301758 57.84643555 C3.45067145 44.12269035 2.24284082 30.40980373 0.8112793 16.71289062 C0.64752808 15.11670898 0.64752808 15.11670898 0.48046875 13.48828125 C0.38660889 12.60696533 0.29274902 11.72564941 0.19604492 10.81762695 C-0.05428079 7.21985728 0 3.60646775 0 0 Z " fill="#E34D26" transform="translate(31,105)"/>
<path d="M0 0 C58.08 0 116.16 0 176 0 C171.46097966 55.60299919 171.46097966 55.60299919 169.41903687 77.16998291 C168.78013364 83.92125903 168.15095811 90.67343872 167.5234375 97.42578125 C167.45985487 98.10928398 167.39627224 98.79278671 167.33076286 99.49700165 C166.361903 109.92575598 165.43491072 120.35769633 164.5390625 130.79296875 C164.48108175 131.46818762 164.42310101 132.14340649 164.36336327 132.83908653 C163.75650895 139.91427358 163.15641785 146.990021 162.56079102 154.06616211 C162.46248993 155.22581985 162.36418884 156.3854776 162.26290894 157.58027649 C162.08096779 159.72782086 161.90068302 161.87550652 161.72244263 164.02336121 C161.2961763 169.04720682 160.77860389 174.01814831 160 179 C147.47203271 183.0184046 134.76536771 186.36773782 122.06542969 189.79101562 C119.18895775 190.56719118 116.31318264 191.34590591 113.4375 192.125 C112.51767334 192.37241943 111.59784668 192.61983887 110.65014648 192.87475586 C104.63016203 194.50813574 98.7241945 196.32440902 92.8515625 198.43359375 C85.17347532 199.95869326 77.20200076 196.8342261 69.86328125 194.76171875 C68.12862862 194.2786602 68.12862862 194.2786602 66.3589325 193.7858429 C63.91831514 193.10508201 61.47845243 192.42161049 59.03930664 191.7355957 C55.34354303 190.69623028 51.64565676 189.66473787 47.94726562 188.63476562 C45.56497502 187.9692121 43.18280949 187.30321069 40.80078125 186.63671875 C39.71179031 186.33239426 38.62279938 186.02806976 37.50080872 185.71452332 C29.96337969 183.5928001 22.47462651 181.33303641 15 179 C13.29849252 160.67153184 11.68659363 142.40070941 11 124 C22.55 124 34.1 124 46 124 C47.29345326 133.70089943 48.29253576 142.36257181 48 152 C48.85658203 152.15239136 48.85658203 152.15239136 49.73046875 152.30786133 C54.66823602 153.23565524 59.48344885 154.37160412 64.3125 155.76171875 C65.40820312 156.07560547 66.50390625 156.38949219 67.6328125 156.71289062 C69.88075989 157.36354361 72.12559435 158.02504773 74.3671875 158.69726562 C87.21553109 162.33259108 97.45975304 159.31840628 110 155.9375 C112.12285628 155.3712927 114.24626214 154.80726923 116.37036133 154.2457428 C118.27667589 153.74088344 120.18135515 153.22986116 122.0859375 152.71850586 C125 152 125 152 127 152 C127.03738281 150.77410156 127.07476562 149.54820312 127.11328125 148.28515625 C127.66036019 133.94310628 129.275021 120.37482499 131 106 C90.74 106 50.48 106 9 106 C6 79 6 79 6 71 C48.24 71 90.48 71 134 71 C134.33 65.39 134.66 59.78 135 54 C135.66 47.73 136.32 41.46 137 35 C92.78 35 48.56 35 3 35 C1.11369098 31.22738196 1.30555436 26.72015111 0.9375 22.5625 C0.84662109 21.61439453 0.75574219 20.66628906 0.66210938 19.68945312 C0.57638672 18.74134766 0.49066406 17.79324219 0.40234375 16.81640625 C0.32491943 15.96506104 0.24749512 15.11371582 0.16772461 14.23657227 C-0.07788392 9.49707851 0 4.74585341 0 0 Z " fill="#FEFEFE" transform="translate(242,163)"/>
<path d="M0 0 C36.96 0 73.92 0 112 0 C115.375 38.3125 115.375 38.3125 116.42724609 50.28637695 C116.74766797 53.91453129 116.74766797 53.91453129 117.06851196 57.54264832 C117.20817772 59.12426163 117.34723144 60.70592908 117.48574829 62.28764343 C117.69908866 64.72225578 117.91411111 67.15670975 118.13037109 69.59106445 C118.19910305 70.36494066 118.26783501 71.13881687 118.33864975 71.93614388 C118.70702715 76.0071197 119.10853191 80.07237564 119.55255127 84.13583374 C119.69115539 85.40669343 119.69115539 85.40669343 119.83255959 86.70322704 C120.00979035 88.30774168 120.19086872 89.91183841 120.37671471 91.515378 C120.49872466 92.61422715 120.49872466 92.61422715 120.62319946 93.73527527 C120.69599939 94.36757648 120.76879932 94.99987768 120.84380531 95.65133953 C121.07273394 99.09368201 121 102.55005362 121 106 C84.04 106 47.08 106 9 106 C2.79996985 40.41745885 2.79996985 40.41745885 1.125 20.375 C1.06388031 19.65300415 1.00276062 18.9310083 0.93978882 18.18713379 C0.42609047 12.09206 0 6.12210101 0 0 Z " fill="#EBEAE9" transform="translate(83,163)"/>
<path d="M0 0 C37.95 0 75.9 0 115 0 C114.40109568 7.18685189 113.79866246 14.37190779 113.15551758 21.5546875 C113.03789928 22.87320489 113.03789928 22.87320489 112.91790485 24.21835899 C112.74881204 26.11340448 112.57955956 28.00843573 112.41016006 29.90345383 C112.13728305 32.9560844 111.86484103 36.00875355 111.59249878 39.06143188 C111.20208502 43.43706765 110.81149389 47.81268753 110.42074585 52.18829346 C109.39685516 63.65410081 108.37390626 75.11999212 107.3515625 86.5859375 C107.24983168 87.72682201 107.14810085 88.86770653 107.04328728 90.0431633 C105.75820871 104.45779487 104.47840855 118.87287169 103.2109375 133.2890625 C103.1445426 134.04418247 103.0781477 134.79930244 103.00974083 135.57730484 C102.69051464 139.208487 102.37144727 142.8396831 102.05245972 146.47088623 C99.96796397 170.19870783 97.83255594 193.92083726 95.59767151 217.63499451 C94.70744367 227.08778524 93.85269682 236.54376377 93 246 C54.36128417 256.96262625 54.36128417 256.96262625 37.07641602 261.56103516 C28.29909757 263.90041941 19.55647229 266.35737156 10.82666016 268.86816406 C9.35205322 269.28727051 9.35205322 269.28727051 7.84765625 269.71484375 C6.98148682 269.96355225 6.11531738 270.21226074 5.22290039 270.46850586 C3 271 3 271 0 271 C0 259.12 0 247.24 0 235 C8.80131285 232.06622905 17.47156612 229.1870221 26.39453125 226.73828125 C27.39280441 226.46155075 28.39107758 226.18482025 29.41960144 225.89970398 C31.50014891 225.32402974 33.58123194 224.75028761 35.6628418 224.1784668 C38.8256501 223.30888451 41.98613861 222.43121911 45.14648438 221.55273438 C47.18736728 220.98910255 49.22837852 220.42593513 51.26953125 219.86328125 C52.19893021 219.60492996 53.12832916 219.34657867 54.08589172 219.08039856 C60.01557543 217.45815345 65.95622698 216.12457572 72 215 C72.05063599 213.59415649 72.05063599 213.59415649 72.10229492 212.15991211 C72.81797942 195.11833077 74.52047967 178.14544321 76.07478333 161.16490936 C76.47607063 156.77180639 76.8730602 152.378315 77.27050781 147.98486328 C78.17552473 137.98946847 79.08673791 127.99464444 80 118 C80.11639832 116.72578186 80.23279663 115.45156372 80.35272217 114.13873291 C80.55777819 111.89434935 80.76287349 109.64996938 80.96801758 107.40559387 C81.31657645 103.59216014 81.66486484 99.77870172 82.01312256 95.96524048 C82.17003909 94.24936771 82.32730184 92.53352657 82.48492432 90.81771851 C83.32295989 81.69423052 84.12809781 72.5692614 84.87109375 63.4375 C84.97591568 62.15354843 84.97591568 62.15354843 85.08285522 60.84365845 C85.41167158 56.80559596 85.73537593 52.7672358 86.04980469 48.72802734 C86.16201984 47.32649022 86.27431929 45.92495985 86.38671875 44.5234375 C86.48170654 43.30575684 86.57669434 42.08807617 86.67456055 40.83349609 C87 38 87 38 88 36 C29.92 36 -28.16 36 -88 36 C-88 35.67 -88 35.34 -88 35 C-58.96 35 -29.92 35 0 35 C0 23.45 0 11.9 0 0 Z " fill="#2A65F0" transform="translate(330,127)"/>
<path d="M0 0 C11.55 0 23.1 0 35 0 C35.99 9.24 36.98 18.48 38 28 C46.43473678 30.17078242 46.43473678 30.17078242 54.87060547 32.3371582 C55.94197754 32.61390381 57.01334961 32.89064941 58.1171875 33.17578125 C59.2937793 33.47693848 60.47037109 33.7780957 61.68261719 34.08837891 C64.60350125 34.89104163 67.40552714 35.84349353 70.2578125 36.85546875 C75.62305604 38.48335416 79.70473395 37.48572213 85 36 C87.01632829 35.5066608 89.03328485 35.01588405 91.05078125 34.52734375 C93.13863414 33.99981728 95.22587004 33.46984321 97.3125 32.9375 C99.41248569 32.40386561 101.51273691 31.87127484 103.61328125 31.33984375 C104.52891846 31.10644287 105.44455566 30.87304199 106.38793945 30.63256836 C108.91524506 30.02052529 111.44674444 29.49128775 114 29 C114.50617935 33.52016366 115.00384437 38.04122599 115.5 42.5625 C115.64308594 43.83931641 115.78617187 45.11613281 115.93359375 46.43164062 C116.06894531 47.67236328 116.20429688 48.91308594 116.34375 50.19140625 C116.53227539 51.89598999 116.53227539 51.89598999 116.72460938 53.63500977 C117.0086196 57.1053227 117.04642989 60.51969272 117 64 C108.80100841 66.5929673 100.56684766 68.99122915 92.27001953 71.2487793 C91.54282715 71.44769775 90.81563477 71.64661621 90.06640625 71.8515625 C89.36660645 72.04266602 88.66680664 72.23376953 87.94580078 72.43066406 C86.24127917 72.92940238 84.56757168 73.53106422 82.90234375 74.1484375 C76.63852618 75.98627361 71.16432139 74.76151223 65.0625 72.9375 C63.91273682 72.60685547 63.91273682 72.60685547 62.73974609 72.26953125 C60.15657606 71.52372606 57.57802484 70.76339344 55 70 C51.04233746 68.83104443 47.08400673 67.66439512 43.125 66.5 C42.11518066 66.20182373 41.10536133 65.90364746 40.06494141 65.59643555 C32.59447927 63.41073101 25.08841133 61.44591354 17.50634766 59.68554688 C16.75015137 59.50572266 15.99395508 59.32589844 15.21484375 59.140625 C14.24212524 58.91681152 14.24212524 58.91681152 13.24975586 58.68847656 C10.04813188 57.70870666 7.06280055 56.35200338 4 55 C3.42689125 48.13179375 2.85762928 41.26327637 2.29101562 34.39453125 C2.09788739 32.05884616 1.90388504 29.72323317 1.70898438 27.38769531 C1.42867804 24.02687953 1.15153638 20.66581533 0.875 17.3046875 C0.78750488 16.26384003 0.70000977 15.22299255 0.60986328 14.15060425 C0.52978027 13.17004059 0.44969727 12.18947693 0.3671875 11.17919922 C0.29612793 10.32204315 0.22506836 9.46488708 0.15185547 8.58175659 C-0.01613634 5.72565951 0 2.86103335 0 0 Z " fill="#EBE8E8" transform="translate(94,286)"/>
<path d="M0 0 C11.55 0 23.1 0 35 0 C36.29345326 9.70089943 37.29253576 18.36257181 37 28 C37.5347998 28.09651855 38.06959961 28.19303711 38.62060547 28.29248047 C46.8865862 29.85990239 54.98945047 31.99734653 63.125 34.125 C70.488125 36.043125 70.488125 36.043125 78 38 C77.67 49.88 77.34 61.76 77 74 C77.66 74.33 78.32 74.66 79 75 C72.03948905 74.36093524 65.5792852 72.65836673 58.86328125 70.76171875 C57.70684616 70.43967972 56.55041107 70.11764069 55.3589325 69.7858429 C52.91831514 69.10508201 50.47845243 68.42161049 48.03930664 67.7355957 C44.34354303 66.69623028 40.64565676 65.66473787 36.94726562 64.63476562 C34.56497502 63.9692121 32.18280949 63.30321069 29.80078125 62.63671875 C28.71179031 62.33239426 27.62279938 62.02806976 26.50080872 61.71452332 C18.96337969 59.5928001 11.47462651 57.33303641 4 55 C2.29849252 36.67153184 0.68659363 18.40070941 0 0 Z " fill="#E9E9EA" transform="translate(253,287)"/>
<path d="M0 0 C29.04 0 58.08 0 88 0 C88 11.55 88 23.1 88 35 C59.95 35 31.9 35 3 35 C1.11369098 31.22738196 1.30555436 26.72015111 0.9375 22.5625 C0.84662109 21.61439453 0.75574219 20.66628906 0.66210938 19.68945312 C0.57638672 18.74134766 0.49066406 17.79324219 0.40234375 16.81640625 C0.32491943 15.96506104 0.24749512 15.11371582 0.16772461 14.23657227 C-0.07788392 9.49707851 0 4.74585341 0 0 Z " fill="#EAEAEA" transform="translate(242,163)"/>
<path d="M0 0 C27.06 0 54.12 0 82 0 C82 11.55 82 23.1 82 35 C55.93 35 29.86 35 3 35 C0 8 0 8 0 0 Z " fill="#EBEBEB" transform="translate(248,234)"/>
<path d="M0 0 C25.41 0 50.82 0 77 0 C77.99 11.88 78.98 23.76 80 36 C54.59 36 29.18 36 3 36 C0 9 0 9 0 0 Z " fill="#E44D26" transform="translate(121,198)"/>
<path d="M0 0 C14.19 0 28.38 0 43 0 C43 5.80723625 42.91457629 10.63793466 42.125 16.25 C40.78840825 26.1373829 39.90132971 36.06508606 39 46 C29.51565063 48.66286989 20.02206562 51.28739741 10.5 53.8125 C9.68168701 54.03123779 8.86337402 54.24997559 8.02026367 54.4753418 C2.23637921 56 2.23637921 56 0 56 C0 37.52 0 19.04 0 0 Z " fill="#2965F1" transform="translate(330,269)"/>
<path d="M0 0 C11.22 0 22.44 0 34 0 C34.98804059 3.95216237 35.41602145 7.76037469 35.75390625 11.80078125 C35.85166603 12.93268135 35.85166603 12.93268135 35.95140076 14.08744812 C36.08825414 15.68177923 36.22347665 17.27625105 36.35717773 18.87084961 C36.56093427 21.29388069 36.7712965 23.71627303 36.98242188 26.13867188 C37.11498202 27.69267438 37.24715591 29.24670988 37.37890625 30.80078125 C37.44139053 31.51768631 37.50387482 32.23459137 37.56825256 32.97322083 C37.92914997 37.33746707 38.05682723 41.62644761 38 46 C30.46576254 48.62483112 22.84242435 50.7335117 15.125 52.75 C13.29195312 53.24306641 13.29195312 53.24306641 11.421875 53.74609375 C10.25398437 54.05160156 9.08609375 54.35710937 7.8828125 54.671875 C6.82465332 54.9512793 5.76649414 55.23068359 4.67626953 55.51855469 C2 56 2 56 -1 55 C-0.67 36.85 -0.34 18.7 0 0 Z " fill="#EF642A" transform="translate(170,269)"/>
<path d="M0 0 C16.17 0 32.34 0 49 0 C48.36710784 12.02495104 47.40695493 24.04088307 46 36 C30.82 36 15.64 36 0 36 C0 24.12 0 12.24 0 0 Z " fill="#2965F1" transform="translate(330,198)"/>
<path d="M0 0 C1.89504327 11.97740938 2.56957989 23.89049766 3 36 C-34.02529511 47 -34.02529511 47 -40 47 C-40.33 35.12 -40.66 23.24 -41 11 C-36.606875 9.741875 -32.21375 8.48375 -27.6875 7.1875 C-25.64502075 6.60198364 -25.64502075 6.60198364 -23.5612793 6.00463867 C-17.94793656 4.39902128 -12.33260064 2.80058223 -6.70703125 1.23828125 C-5.40922729 0.87730347 -5.40922729 0.87730347 -4.08520508 0.5090332 C-2 0 -2 0 0 0 Z " fill="#F0652A" transform="translate(211,350)"/>
<path d="M0 0 C0.50617935 4.52016366 1.00384437 9.04122599 1.5 13.5625 C1.64308594 14.83931641 1.78617188 16.11613281 1.93359375 17.43164062 C2.13662109 19.29272461 2.13662109 19.29272461 2.34375 21.19140625 C2.46943359 22.32779541 2.59511719 23.46418457 2.72460938 24.63500977 C3.0086196 28.1053227 3.04642989 31.51969272 3 35 C-4.38264746 37.33479487 -11.79297487 39.54148817 -19.25 41.625 C-19.98138184 41.83084717 -20.71276367 42.03669434 -21.46630859 42.2487793 C-26.62648686 43.6793295 -31.75685929 44.83485762 -37 46 C-37 34.12 -37 22.24 -37 10 C-32.16345642 8.18629616 -27.95271788 6.61459372 -23.0390625 5.4296875 C-21.99105469 5.17316406 -20.94304687 4.91664063 -19.86328125 4.65234375 C-18.79464844 4.39582031 -17.72601563 4.13929688 -16.625 3.875 C-14.47085266 3.35363022 -12.31718009 2.83029365 -10.1640625 2.3046875 C-9.21998535 2.07765137 -8.2759082 1.85061523 -7.30322266 1.61669922 C-1.26524149 0 -1.26524149 0 0 0 Z " fill="#FEFDFD" transform="translate(208,315)"/>
<path d="M0 0 C25.41 0 50.82 0 77 0 C77.99 11.88 78.98 23.76 80 36 C69.77 36 59.54 36 49 36 C49 24.45 49 12.9 49 1 C33.16 1 17.32 1 1 1 C1 3.64 1 6.28 1 9 C0.67 9 0.34 9 0 9 C0 6.03 0 3.06 0 0 Z " fill="#EF662D" transform="translate(121,198)"/>
<path d="M0 0 C9.9 0 19.8 0 30 0 C30.495 4.29 30.99 8.58 31.5 13 C31.65662109 14.33675781 31.81324219 15.67351562 31.97460938 17.05078125 C32.09642578 18.12714844 32.21824219 19.20351562 32.34375 20.3125 C32.46943359 21.40175781 32.59511719 22.49101562 32.72460938 23.61328125 C33.03232054 27.39747393 33 31.20331718 33 35 C22.11 35 11.22 35 0 35 C0 23.45 0 11.9 0 0 Z " fill="#FDFDFE" transform="translate(171,234)"/>
<path d="M0 0 C3.774375 -0.020625 7.54875 -0.04125 11.4375 -0.0625 C12.62915771 -0.071604 13.82081543 -0.08070801 15.04858398 -0.09008789 C16.44572632 -0.09383423 16.44572632 -0.09383423 17.87109375 -0.09765625 C18.82943115 -0.10289307 19.78776855 -0.10812988 20.77514648 -0.11352539 C23 0 23 0 24 1 C24.5215417 4.2488148 24.75899979 7.53694585 25.0625 10.8125 C25.15337891 11.70904297 25.24425781 12.60558594 25.33789062 13.52929688 C25.99323489 20.44243973 26 26.98495175 26 34 C17.42 34 8.84 34 0 34 C0 22.78 0 11.56 0 0 Z " fill="#FEFEFE" transform="translate(171,164)"/>
<path d="M0 0 C6.6 0 13.2 0 20 0 C22.50794793 11.36936394 23.13841156 22.37342901 23 34 C15.41 34 7.82 34 0 34 C0 22.78 0 11.56 0 0 Z " fill="#EF6429" transform="translate(171,129)"/>
</svg>
