<?xml version="1.0" encoding="UTF-8"?>
<svg version="1.1" xmlns="http://www.w3.org/2000/svg" width="225" height="225">
<!-- <path d="M0 0 C74.25 0 148.5 0 225 0 C225 74.25 225 148.5 225 225 C150.75 225 76.5 225 0 225 C0 150.75 0 76.5 0 0 Z " fill="#FEFEFE" transform="translate(0,0)"/> -->
<path d="M0 0 C0.71208115 -0.00807175 1.42416229 -0.01614349 2.15782166 -0.02445984 C3.67183994 -0.0383226 5.18588977 -0.04903491 6.69995117 -0.05688477 C8.99395282 -0.07397006 11.28646441 -0.11781583 13.58007812 -0.16210938 C27.51017489 -0.3122603 27.51017489 -0.3122603 33.96484375 4.23828125 C35.8046875 6.0546875 35.8046875 6.0546875 36.90234375 7.80078125 C37.28261719 8.37957031 37.66289062 8.95835938 38.0546875 9.5546875 C40.35352378 13.80704131 40.09297393 17.93787113 40.0625 22.625 C40.06108505 23.44200882 40.0596701 24.25901764 40.05821228 25.1007843 C40.05261669 27.70915393 40.04006504 30.31743759 40.02734375 32.92578125 C40.02232818 34.69466022 40.01776537 36.46354053 40.01367188 38.23242188 C40.00264871 42.56774144 39.98538713 46.90299677 39.96484375 51.23828125 C35.34484375 51.23828125 30.72484375 51.23828125 25.96484375 51.23828125 C25.95549805 50.19373779 25.94615234 49.14919434 25.93652344 48.07299805 C25.89665501 44.19805225 25.83090634 40.32390311 25.75732422 36.44946289 C25.72909607 34.77248365 25.70789065 33.0953709 25.69384766 31.41821289 C25.6724425 29.00727907 25.62580949 26.59795341 25.57421875 24.1875 C25.57299011 23.43740158 25.57176147 22.68730316 25.57049561 21.91447449 C25.5476234 19.54261695 25.5476234 19.54261695 24.96484375 16.23828125 C19.92463682 11.89408691 19.92463682 11.89408691 6.96484375 12.23828125 C6.96484375 25.10828125 6.96484375 37.97828125 6.96484375 51.23828125 C2.01484375 51.23828125 -2.93515625 51.23828125 -8.03515625 51.23828125 C-8.05979781 44.13582617 -8.07798825 37.03339574 -8.09008789 29.9309082 C-8.09512974 27.51260953 -8.10196303 25.09431392 -8.1105957 22.67602539 C-8.12266782 19.20848842 -8.12838588 15.74099159 -8.1328125 12.2734375 C-8.13797379 11.18490982 -8.14313507 10.09638214 -8.14845276 8.97486877 C-8.14852829 7.97390671 -8.14860382 6.97294464 -8.14868164 5.94165039 C-8.15090225 5.05562637 -8.15312286 4.16960236 -8.15541077 3.25672913 C-7.88506097 -1.28103791 -3.57157184 0.03814898 0 0 Z " fill="#094B49" transform="translate(96.03515625,86.76171875)"/>
<path d="M0 0 C0.88602402 0.00222061 1.77204803 0.00444122 2.68492126 0.00672913 C3.68588333 0.00680466 4.6868454 0.00688019 5.71813965 0.00695801 C6.80666733 0.01211929 7.89519501 0.01728058 9.01670837 0.02259827 C10.67928932 0.02472069 10.67928932 0.02472069 12.37545776 0.02688599 C15.93168281 0.03250418 19.48784596 0.04505977 23.04405212 0.05775452 C25.44834809 0.06276717 27.85264504 0.06733048 30.25694275 0.07142639 C36.1651699 0.08247953 42.0733505 0.09975635 47.98155212 0.12025452 C47.98155212 5.07025452 47.98155212 10.02025452 47.98155212 15.12025452 C40.87909705 15.14489607 33.77666662 15.16308652 26.67417908 15.17518616 C24.2558804 15.18022801 21.83758479 15.1870613 19.41929626 15.19569397 C15.95175929 15.20776608 12.48426246 15.21348415 9.01670837 15.21791077 C7.92818069 15.22307205 6.83965302 15.22823334 5.71813965 15.23355103 C4.21669655 15.23366432 4.21669655 15.23366432 2.68492126 15.23377991 C1.35588524 15.23711082 1.35588524 15.23711082 0 15.24050903 C-2.01844788 15.12025452 -2.01844788 15.12025452 -3.01844788 14.12025452 C-3.11737727 11.95544655 -3.14815888 9.78731667 -3.14344788 7.62025452 C-3.146026 6.43431702 -3.14860413 5.24837952 -3.15126038 4.02650452 C-2.97535426 0.17726481 -2.97535426 0.17726481 0 0 Z " fill="#0FBEBC" transform="translate(154.01844787597656,104.87974548339844)"/>
<path d="M0 0 C7.10245508 -0.02464156 14.20488551 -0.042832 21.30737305 -0.05493164 C23.72567172 -0.05997349 26.14396733 -0.06680678 28.56225586 -0.07543945 C32.02979283 -0.08751157 35.49728966 -0.09322963 38.96484375 -0.09765625 C40.05337143 -0.10281754 41.14189911 -0.10797882 42.26341248 -0.11329651 C43.76485558 -0.11340981 43.76485558 -0.11340981 45.29663086 -0.11352539 C46.62566689 -0.11685631 46.62566689 -0.11685631 47.98155212 -0.12025452 C50 0 50 0 51 1 C51.0989294 3.16480797 51.129711 5.33293785 51.125 7.5 C51.12886719 9.27890625 51.12886719 9.27890625 51.1328125 11.09375 C51 14 51 14 50 15 C48.43452952 15.09326716 46.86487228 15.11745582 45.29663086 15.11352539 C44.29566879 15.11344986 43.29470673 15.11337433 42.26341248 15.11329651 C41.1748848 15.10813522 40.08635712 15.10297394 38.96484375 15.09765625 C37.85645645 15.0962413 36.74806915 15.09482635 35.60609436 15.09336853 C32.04986931 15.08775033 28.49370617 15.07519475 24.9375 15.0625 C22.53320403 15.05748734 20.12890708 15.05292403 17.72460938 15.04882812 C11.81638223 15.03777499 5.90820163 15.02049816 0 15 C0 10.05 0 5.1 0 0 Z " fill="#0FBEBC" transform="translate(23,105)"/>
<path d="M0 0 C4.95 0 9.9 0 15 0 C15.02464849 5.39346988 15.04283531 10.78690725 15.05493164 16.18041992 C15.05997231 18.01668875 15.06680477 19.85295354 15.07543945 21.68920898 C15.08751672 24.32276401 15.09323081 26.95626616 15.09765625 29.58984375 C15.10281754 30.41588608 15.10797882 31.24192841 15.11329651 32.09300232 C15.11349205 34.06236368 15.06204152 36.03161614 15 38 C14 39 14 39 11.09375 39.1328125 C9.9078125 39.13023437 8.721875 39.12765625 7.5 39.125 C6.3140625 39.12757813 5.128125 39.13015625 3.90625 39.1328125 C1 39 1 39 0 38 C-0.08861992 35.1883662 -0.11522355 32.40141745 -0.09765625 29.58984375 C-0.0962413 28.74780899 -0.09482635 27.90577423 -0.09336853 27.03822327 C-0.08775263 24.33794665 -0.07519748 21.63775172 -0.0625 18.9375 C-0.05748705 17.11132932 -0.05292379 15.28515734 -0.04882812 13.45898438 C-0.03777804 8.97262458 -0.02050279 4.48632616 0 0 Z " fill="#12BEBC" transform="translate(105,153)"/>
<path d="M0 0 C4.95 0 9.9 0 15 0 C15.02464849 5.39346988 15.04283531 10.78690725 15.05493164 16.18041992 C15.05997231 18.01668875 15.06680477 19.85295354 15.07543945 21.68920898 C15.08751672 24.32276401 15.09323081 26.95626616 15.09765625 29.58984375 C15.10281754 30.41588608 15.10797882 31.24192841 15.11329651 32.09300232 C15.11349205 34.06236368 15.06204152 36.03161614 15 38 C14 39 14 39 11.09375 39.1328125 C9.9078125 39.13023438 8.721875 39.12765625 7.5 39.125 C6.3140625 39.12757812 5.128125 39.13015625 3.90625 39.1328125 C1 39 1 39 0 38 C-0.08861992 35.1883662 -0.11522355 32.40141745 -0.09765625 29.58984375 C-0.0962413 28.74780899 -0.09482635 27.90577423 -0.09336853 27.03822327 C-0.08775263 24.33794665 -0.07519748 21.63775172 -0.0625 18.9375 C-0.05748705 17.11132932 -0.05292379 15.28515734 -0.04882812 13.45898438 C-0.03777804 8.97262458 -0.02050279 4.48632616 0 0 Z " fill="#12BFBC" transform="translate(105,34)"/>
<path d="M0 0 C3.8125 0.8125 3.8125 0.8125 4.8125 1.8125 C5.80809583 5.38317075 5.78392779 8.23503035 4.8125 11.8125 C3.16434033 14.30081198 1.22638562 16.38796176 -0.875 18.5 C-1.40440186 19.04116455 -1.93380371 19.5823291 -2.47924805 20.13989258 C-4.93620579 22.44566449 -6.42688126 23.81028568 -9.87109375 23.8203125 C-12.24435557 22.78776351 -13.74052083 21.82660348 -15.5625 20 C-16.08585937 19.49855469 -16.60921875 18.99710938 -17.1484375 18.48046875 C-18.1875 16.8125 -18.1875 16.8125 -17.90283203 14.89672852 C-15.6778716 8.41396837 -7.08288222 -0.01140561 0 0 Z " fill="#0ABCBA" transform="translate(79.1875,141.1875)"/>
<path d="M0 0 C5.39645522 2.43522348 9.66050331 7.31895932 13.1640625 11.9765625 C14.07433307 15.51808394 14.06757062 18.43539357 13.1640625 21.9765625 C11.62513016 23.51549484 10.18226326 23.3128681 8.04296875 23.4453125 C4.1777155 23.40242481 2.28976336 22.74873106 -0.55859375 20.1328125 C-1.69584466 18.93639825 -2.80908566 17.71674767 -3.8984375 16.4765625 C-4.47787109 15.85652344 -5.05730469 15.23648438 -5.65429688 14.59765625 C-7.06966528 13.07701251 -8.45591497 11.52935447 -9.8359375 9.9765625 C-8.53149182 7.12541695 -7.13041319 4.92908504 -4.9609375 2.6640625 C-4.22230469 1.86548828 -4.22230469 1.86548828 -3.46875 1.05078125 C-1.8359375 -0.0234375 -1.8359375 -0.0234375 0 0 Z " fill="#06BBB9" transform="translate(70.8359375,60.0234375)"/>
</svg>
